<?xml version="1.0" encoding="UTF-8"?>
<svg id="_レイヤー_1" data-name="レイヤー 1" xmlns="http://www.w3.org/2000/svg" version="1.1" viewBox="0 0 235.3 141.7">
  <defs>
    <style>
      .cls-1 {
        fill: #231815;
      }

      .cls-1, .cls-2 {
        stroke-width: 0px;
      }

      .cls-2 {
        fill: #23ff15;
      }
    </style>
  </defs>
  <path class="cls-2" d="M2.2,64.7c0-15.5,13.7-27.2,40.8-34.7,20.2-5.6,46.9-8.7,75-8.7s54.8,3.1,75,8.7c27.1,7.5,40.8,19.2,40.8,34.7h-15.6c0-15.3-44.9-27.8-100.2-27.8s-100.2,12.4-100.2,27.8H2.2Z"/>
  <circle class="cls-1" cx="118" cy="70.6" r="68.6"/>
  <path class="cls-2" d="M233.8,64.7c0,15.5-13.7,27.2-40.8,34.7-20.2,5.6-46.9,8.7-75,8.7s-54.8-3.1-75-8.7C15.9,91.9,2.2,80.2,2.2,64.7h15.6c0,15.3,44.9,27.8,100.2,27.8s100.2-12.4,100.2-27.8h15.6Z"/>
</svg>