<?xml version="1.0" encoding="utf-8"?>
<!-- Generator: Adobe Illustrator 28.0.0, SVG Export Plug-In . SVG Version: 6.00 Build 0)  -->
<svg version="1.1" id="レイヤー_1" xmlns="http://www.w3.org/2000/svg" xmlns:xlink="http://www.w3.org/1999/xlink" x="0px"
	 y="0px" viewBox="0 0 172.3 85.9" style="enable-background:new 0 0 172.3 85.9;" xml:space="preserve">
<style type="text/css">
	.st0{fill:#FFFFFF;}
</style>
<g id="LNxapQ_00000155114358097686238690000013876800574347693483_">
	<g>
		<path class="st0" d="M8.9,54.4c-0.3-1.3-1.6-2.3-2.4-3.4c-0.9,1.2-2.6,2.4-2.6,3.6c-0.1,7.8,0,15.6,0.4,23.4c0.2,3.3,2.7,5,5.8,5
			c7.5,0,15,0,22.4-0.7c1.8-0.2,3.3-3,5-4.5c-1.8-1-3.7-2.8-5.5-2.9c-5.3-0.1-10.6,0.6-16,1C23.6,59,33.9,44.7,50,34.8
			c20.5-12.7,42.2-21.2,66.5-21.5c15.6-0.2,30.8,2.4,45.6,7.6c1.6,0.6,3.4,0.8,5.1,1.2c0.3-0.5,0.5-1.1,0.8-1.6
			c-2.3-1.5-4.5-3.4-7-4.4c-21.3-8.7-43.4-10.9-66.1-7.1c-26.9,4.5-50.2,16.4-69.6,35.3c-5.8,5.6-9.9,13.1-14.9,20
			C9.9,61.2,9.6,57.7,8.9,54.4z"/>
		<path d="M10.3,64.3c-0.4-3.1-0.7-6.5-1.4-9.9c-0.3-1.3-1.6-2.3-2.4-3.4c-0.9,1.2-2.6,2.4-2.6,3.6c-0.1,7.8,0,15.6,0.4,23.4
			c0.2,3.3,2.7,5,5.8,5c7.5,0,15,0,22.4-0.7c1.8-0.2,3.3-3,5-4.5c-1.8-1-3.7-2.8-5.5-2.9c-5.3-0.1-10.6,0.6-16,1
			C23.6,59,33.9,44.7,50,34.8c20.5-12.7,42.2-21.2,66.5-21.5c15.6-0.2,30.8,2.4,45.6,7.6c1.6,0.6,3.4,0.8,5.1,1.2
			c0.3-0.5,0.5-1.1,0.8-1.6c-2.3-1.5-4.5-3.4-7-4.4c-21.3-8.7-43.4-10.9-66.1-7.1c-26.9,4.5-50.2,16.4-69.6,35.3
			C19.4,49.9,15.4,57.3,10.3,64.3z"/>
	</g>
</g>
<g>
</g>
<g>
</g>
<g>
</g>
<g>
</g>
<g>
</g>
<g>
</g>
</svg>
