<?xml version="1.0" encoding="utf-8"?>
<!-- Generator: Adobe Illustrator 28.1.0, SVG Export Plug-In . SVG Version: 6.00 Build 0)  -->
<svg version="1.1" id="レイヤー_1" xmlns="http://www.w3.org/2000/svg" xmlns:xlink="http://www.w3.org/1999/xlink" x="0px"
	 y="0px" viewBox="0 0 93 93" style="enable-background:new 0 0 93 93;" xml:space="preserve">
<style type="text/css">
	.st0{fill:#172F41;}
	.st1{fill:#FFFFFF;}
</style>
<path class="st0" d="M84.9,92.8H7.1c-4.1,0-7.4-3.3-7.4-7.4V7.7c0-4.1,3.3-7.4,7.4-7.4h77.7c4.1,0,7.4,3.3,7.4,7.4v77.7
	C92.3,89.5,89,92.8,84.9,92.8z"/>
<g>
	<path class="st1" d="M17.3,56.1l6.5-18.9h4.5l6.5,18.9H31l-1.3-4h-7.3l-1.4,4H17.3z M23.4,49h5.3l-3.1-9.4h1L23.4,49z"/>
	<path class="st1" d="M39.4,56.1V37.2h6.2c2,0,3.7,0.4,5.2,1.2c1.5,0.8,2.6,1.9,3.4,3.3c0.8,1.4,1.2,3.1,1.2,4.9
		c0,1.8-0.4,3.5-1.2,4.9c-0.8,1.4-2,2.5-3.4,3.4c-1.5,0.8-3.2,1.2-5.2,1.2H39.4z M42.9,53h2.8c1.3,0,2.4-0.3,3.3-0.8
		c0.9-0.5,1.7-1.3,2.2-2.2c0.5-1,0.8-2.1,0.8-3.4c0-1.3-0.3-2.4-0.8-3.4c-0.5-1-1.3-1.7-2.2-2.2c-0.9-0.5-2.1-0.8-3.3-0.8h-2.8V53z"
		/>
	<path class="st1" d="M67.5,56.4c-1.2,0-2.3-0.2-3.3-0.7s-1.9-1.1-2.6-1.8c-0.7-0.8-1.3-1.7-1.6-2.8l2.9-1.2c0.5,1.1,1.1,1.9,2,2.6
		c0.9,0.6,1.8,0.9,2.9,0.9c0.6,0,1.1-0.1,1.6-0.3c0.4-0.2,0.8-0.5,1-0.8c0.2-0.3,0.4-0.7,0.4-1.2c0-0.6-0.2-1-0.5-1.4
		c-0.3-0.4-0.8-0.6-1.5-0.9l-3.6-1.2c-1.5-0.5-2.6-1.1-3.3-2c-0.8-0.9-1.1-2-1.1-3.2c0-1.1,0.3-2,0.8-2.9c0.5-0.8,1.3-1.5,2.2-1.9
		c1-0.5,2.1-0.7,3.3-0.7c1.1,0,2.2,0.2,3.1,0.6c0.9,0.4,1.8,0.9,2.5,1.7s1.2,1.5,1.5,2.5l-2.9,1.3c-0.4-0.9-0.9-1.7-1.7-2.2
		c-0.8-0.5-1.6-0.8-2.6-0.8c-0.6,0-1.1,0.1-1.5,0.3c-0.4,0.2-0.8,0.5-1,0.8c-0.2,0.4-0.4,0.8-0.4,1.2c0,0.5,0.2,1,0.5,1.4
		c0.3,0.4,0.9,0.7,1.5,0.9l3.5,1.1c1.5,0.5,2.6,1.2,3.4,2c0.8,0.9,1.1,1.9,1.1,3.2c0,1.1-0.3,2-0.8,2.9c-0.6,0.8-1.3,1.5-2.3,2
		C70,56.1,68.8,56.4,67.5,56.4z"/>
</g>
</svg>
