<?xml version="1.0" encoding="utf-8"?>
<!-- Generator: Adobe Illustrator 28.1.0, SVG Export Plug-In . SVG Version: 6.00 Build 0)  -->
<svg version="1.1" id="レイヤー_1" xmlns="http://www.w3.org/2000/svg" xmlns:xlink="http://www.w3.org/1999/xlink" x="0px"
	 y="0px" viewBox="0 0 93 93" style="enable-background:new 0 0 93 93;" xml:space="preserve">
<style type="text/css">
	.st0{fill:#172F41;}
	.st1{fill:#FFFFFF;}
</style>
<path class="st0" d="M84.9,92.8H7.1c-4.1,0-7.4-3.3-7.4-7.4V7.7c0-4.1,3.3-7.4,7.4-7.4h77.7c4.1,0,7.4,3.3,7.4,7.4v77.7
	C92.3,89.5,89,92.8,84.9,92.8z"/>
<g>
	<path class="st1" d="M44.6,39.9c0-6.2-7.2-11.3-16.1-11.3s-16.1,5.1-16.1,11.3c0,6.2,7.2,11.3,16.1,11.3c0.6,0,1.1,0,1.7-0.1
		c1,1.6,3.1,4,6.7,4.8c0,0-2.2-2.2-3.1-5.4C40.1,49,44.6,44.8,44.6,39.9z"/>
	<path class="st1" d="M47.4,48.5c0-6.2,7.2-11.3,16.1-11.3s16.1,5.1,16.1,11.3c0,6.2-7.2,11.3-16.1,11.3c-0.6,0-1.1,0-1.7-0.1
		c-1,1.6-3.1,4-6.7,4.8c0,0,2.2-2.2,3.1-5.4C51.9,57.6,47.4,53.4,47.4,48.5z"/>
	<g>
		<circle class="st0" cx="22.2" cy="39.8" r="1.5"/>
		<circle class="st0" cx="27.8" cy="39.8" r="1.5"/>
		<circle class="st0" cx="33.5" cy="39.8" r="1.5"/>
	</g>
	<g>
		<circle class="st0" cx="58.3" cy="48.6" r="1.5"/>
		<circle class="st0" cx="64" cy="48.6" r="1.5"/>
		<circle class="st0" cx="69.6" cy="48.6" r="1.5"/>
	</g>
</g>
</svg>
