<?xml version="1.0" encoding="utf-8"?>
<!-- Generator: Adobe Illustrator 28.1.0, SVG Export Plug-In . SVG Version: 6.00 Build 0)  -->
<svg version="1.1" id="レイヤー_1" xmlns="http://www.w3.org/2000/svg" xmlns:xlink="http://www.w3.org/1999/xlink" x="0px"
	 y="0px" viewBox="0 0 93 93" style="enable-background:new 0 0 93 93;" xml:space="preserve">
<style type="text/css">
	.st0{fill:#172F41;}
	.st1{fill:#FFFFFF;}
</style>
<path class="st0" d="M85.4,92.8H7.6c-4.1,0-7.4-3.3-7.4-7.4V7.6c0-4.1,3.3-7.4,7.4-7.4h77.7c4.1,0,7.4,3.3,7.4,7.4v77.7
	C92.8,89.4,89.5,92.8,85.4,92.8z"/>
<g id="_x38_3lCMB_00000129203506961653180180000004772844908187217031_">
	<g>
		<path class="st1" d="M66.5,46.1c-0.7,0.3-1.4,0.7-2.3,1.1c0,0.3,0,0.8-0.1,1.3c-0.2,1.6-1,3.1-2.6,3.2c-1.9,0.2-2.5,1.3-2.8,2.9
			c-0.1,0.6-0.3,1.2-0.5,1.7c-1,3.2-1.9,6.4-2.9,9.7c-1.2-0.3-2.3-0.6-3.4-0.8c0.6-4.4,1.1-8.7,1.7-13.2c-1.2,0-2.2,0-3.2,0
			c-0.1-0.6-0.2-1.1-0.3-1.5c-5.1,0.6-11.4,3-15.2,5.9c-0.7,0.5-1.4,1-1.8,1.7c-0.5,0.9-1.1,1.6-2,1.1C30.5,59,30,58,29.9,57.3
			c-0.1-2.5-0.1-5,0-7.5c0-1-0.3-1.5-1.1-2.1c-3.3-2.2-3.3-6.8,0-9c0.9-0.6,1.1-1.2,1.1-2.2c-0.1-2.6-0.1-5.2,0.1-7.8
			c0-0.6,0.6-1.5,1.1-1.6c0.6-0.1,1.3,0.4,1.9,0.8c0.6,0.5,1.1,1.3,1.7,1.8c3,2.3,6.4,3.9,10,5c1.8,0.5,3.6,0.9,5.6,1.3
			c-0.3-1.6,0.5-1.6,1.4-1.6c2.4,0,4.8,0,7.1,0c4.2,0,5.1,0.8,5.5,5c0,0.1,0.1,0.2,0,0c0.9,0.4,1.6,0.7,2.3,1
			C66.5,42.3,66.5,44.2,66.5,46.1z"/>
	</g>
</g>
</svg>
