<?xml version="1.0" encoding="utf-8"?>
<!-- Generator: Adobe Illustrator 28.1.0, SVG Export Plug-In . SVG Version: 6.00 Build 0)  -->
<svg version="1.1" id="レイヤー_1" xmlns="http://www.w3.org/2000/svg" xmlns:xlink="http://www.w3.org/1999/xlink" x="0px"
	 y="0px" viewBox="0 0 93 93" style="enable-background:new 0 0 93 93;" xml:space="preserve">
<style type="text/css">
	.st0{fill:#172F41;}
	.st1{fill:#FFFFFF;}
</style>
<path class="st0" d="M84.9,92.8H7.1c-4.1,0-7.4-3.3-7.4-7.4V7.7c0-4.1,3.3-7.4,7.4-7.4h77.7c4.1,0,7.4,3.3,7.4,7.4v77.7
	C92.3,89.5,89,92.8,84.9,92.8z"/>
<path class="st1" d="M27.3,43.8c0-10.3,8.4-18.7,18.7-18.7s18.7,8.4,18.7,18.7c0,9.9-12.5,19.7-17.1,23.5c-1,0.8-2.3,0.8-3.3,0
	C39.8,63.4,27.3,54.3,27.3,43.8z"/>
<g>
	<path class="st0" d="M44,37.7v-4.2h4v4.2H44z M44,55.9V41.6h4v14.3H44z"/>
</g>
</svg>
