<?xml version="1.0" encoding="utf-8"?>
<!-- Generator: Adobe Illustrator 28.1.0, SVG Export Plug-In . SVG Version: 6.00 Build 0)  -->
<svg version="1.1" id="レイヤー_1" xmlns="http://www.w3.org/2000/svg" xmlns:xlink="http://www.w3.org/1999/xlink" x="0px"
	 y="0px" viewBox="0 0 93 93" style="enable-background:new 0 0 93 93;" xml:space="preserve">
<style type="text/css">
	.st0{fill:#172F41;}
	.st1{fill:#FFFFFF;}
</style>
<path class="st0" d="M84.9,92.8H7.1c-4.1,0-7.4-3.3-7.4-7.4V7.7c0-4.1,3.3-7.4,7.4-7.4h77.7c4.1,0,7.4,3.3,7.4,7.4v77.7
	C92.3,89.5,89,92.8,84.9,92.8z"/>
<g id="bmE2r5_00000171000963643388161380000016959770910386834840_">
	<g>
		<path class="st1" d="M45.6,58.4c-0.6-0.2-0.6-0.5-1.2-0.6c-3.7-0.8-8.1,1.3-9.9,4.8c-1.5,3,0.2,5.9,3.5,6c2.9,0.1,5.3-1,7.3-3.1
			c1.2-1.3,1.8-2.8,1.8-4.6c0-7.8,0-15.7,0-23.5c0-0.3,0-0.6,0-1c0.4,0.1,0.7,0.1,1,0.2c4.5,1,8.1,5.4,8.4,10.1
			c0.2,3.2-0.7,6.1-2,8.9c-0.3,0.7-0.6,1.3-0.9,2c0.1,0.1,0.1,0.1,0.2,0.2c0.2-0.2,0.6-0.3,0.7-0.6c0.9-2,1.9-4,2.6-6.1
			C59,45.7,57.8,41,54,36.9c-1.1-1.2-2.1-2.4-3.3-3.5c-2.2-2.2-3.2-4.9-3.4-7.9c-0.1-1-0.7-1-1.7-0.7C45.6,35.9,45.6,47.1,45.6,58.4
			z"/>
	</g>
</g>
</svg>
