<svg id="グループ_26" data-name="グループ 26" xmlns="http://www.w3.org/2000/svg" xmlns:xlink="http://www.w3.org/1999/xlink" width="90.71" height="83.842" viewBox="0 0 90.71 83.842">
  <defs>
    <clipPath id="clip-path">
      <rect id="長方形_29" data-name="長方形 29" width="90.71" height="83.842" fill="none"/>
    </clipPath>
  </defs>
  <g id="グループ_25" data-name="グループ 25" clip-path="url(#clip-path)">
    <path id="パス_24" data-name="パス 24" d="M88.124,40.21c-1.351,1.948-2.454,3.782-3.794,5.424A27.882,27.882,0,0,1,52.567,53.9a47.323,47.323,0,0,1-6.372-3.524,1.214,1.214,0,0,0-1.6-.028,27.156,27.156,0,0,1-21.539,5.055c-8.617-1.554-15.075-6.341-19.5-13.883-.266-.454-.515-.918-.772-1.377l-.231.051a7.794,7.794,0,0,0-.087.831q0,20.754,0,41.507c0,.408-.136,1.109-.349,1.168a4.74,4.74,0,0,1-1.763-.023c-.124-.015-.263-.3-.307-.489a3.179,3.179,0,0,1-.018-.72Q.017,55.793,0,29.116c-.014-8.146,2.5-15.3,8.392-21.031C15.254,1.4,23.55-1.021,32.958.479A25.983,25.983,0,0,1,44.6,5.545a1.1,1.1,0,0,0,1.529,0A26.939,26.939,0,0,1,67.579.472c9.595,1.731,16.5,7.2,20.658,16.051A28.512,28.512,0,0,1,90.71,28.9q-.051,26.812-.033,53.625c0,1.271-.051,1.287-1.322,1.313-.84.017-1.151-.262-1.149-1.153q.039-20.528.015-41.055c0-.43-.057-.859-.1-1.423m.12-12.235a22.927,22.927,0,0,0-1.681-9.113C83.03,10.242,76.682,4.806,67.547,2.954A24.391,24.391,0,0,0,48.884,6.635c-1.6,1.039-1.59,1.036-.309,2.473a27.479,27.479,0,0,1,6.937,23.5A26.8,26.8,0,0,1,48.03,47.354c-.713.737-.7.821.15,1.423a25.088,25.088,0,0,0,11.777,4.452,24.183,24.183,0,0,0,15.774-3.41c8.127-4.975,12.208-12.355,12.513-21.843M53.468,26.138c-.27-1.3-.61-3.625-1.253-5.866a23.5,23.5,0,0,0-6.069-10.1c-.584-.591-.957-.585-1.535.022a24.986,24.986,0,0,0-7.1,20.551,24.577,24.577,0,0,0,7.238,15.079c.518.525.918.5,1.333-.034a60.438,60.438,0,0,0,3.868-5.081c2.551-4.123,3.557-8.7,3.512-14.569" transform="translate(0 0)" fill="#1a1311"/>
  </g>
</svg>
