<?xml version="1.0" encoding="utf-8"?>
<!-- Generator: Adobe Illustrator 28.1.0, SVG Export Plug-In . SVG Version: 6.00 Build 0)  -->
<svg version="1.1" id="レイヤー_1" xmlns="http://www.w3.org/2000/svg" xmlns:xlink="http://www.w3.org/1999/xlink" x="0px"
	 y="0px" viewBox="0 0 93 93" style="enable-background:new 0 0 93 93;" xml:space="preserve">
<style type="text/css">
	.st0{fill:#172F41;}
	.st1{fill:#FFFFFF;}
</style>
<path class="st0" d="M84.9,92.8H7.1c-4.1,0-7.4-3.3-7.4-7.4V7.7c0-4.1,3.3-7.4,7.4-7.4h77.7c4.1,0,7.4,3.3,7.4,7.4v77.7
	C92.3,89.5,89,92.8,84.9,92.8z"/>
<g>
	<path class="st1" d="M45.4,64.7c0-3.6-6.2-3.6-9.8-3.6s-10.3,0-10.3,0V28.4c0,0,6.7,0,10.3,0s9.8,0,9.8,3.6V64.7z"/>
	<path class="st1" d="M47.6,64.7c0-3.6,6.2-3.6,9.8-3.6c3.6,0,10.3,0,10.3,0V28.4c0,0-6.7,0-10.3,0c-3.6,0-9.8,0-9.8,3.6V64.7z"/>
</g>
</svg>
