<?xml version="1.0" encoding="utf-8"?>
<!-- Generator: Adobe Illustrator 28.1.0, SVG Export Plug-In . SVG Version: 6.00 Build 0)  -->
<svg version="1.1" id="レイヤー_1" xmlns="http://www.w3.org/2000/svg" xmlns:xlink="http://www.w3.org/1999/xlink" x="0px"
	 y="0px" viewBox="0 0 93 93" style="enable-background:new 0 0 93 93;" xml:space="preserve">
<style type="text/css">
	.st0{fill:#172F41;}
	.st1{fill:#FFFFFF;}
</style>
<path class="st0" d="M85.4,92.8H7.6c-4.1,0-7.4-3.3-7.4-7.4V7.6c0-4.1,3.3-7.4,7.4-7.4h77.7c4.1,0,7.4,3.3,7.4,7.4v77.7
	C92.8,89.4,89.5,92.8,85.4,92.8z"/>
<g id="_x39_Ym0y9_00000018950105696447299270000014683476343137538229_">
	<g>
		<path class="st1" d="M62.2,31.6c0.1,2.6-0.9,4.7-2.6,6.5c-0.7,0.8-1.4,1.7-2.1,2.6c-0.7,0.9-0.9,2-0.9,3.1
			c0.1,2.6,0.2,5.1,0.4,7.7c0.4,4.3,1,8.6,1.5,12.8c0.1,1.1,0.3,2.2,0.4,3.2c0.1,1.3-0.1,2.5-0.7,3.7c-0.5,1.1-1.4,1.9-2.7,1.9
			c-1.3,0-2.2-0.6-2.8-1.8c-0.7-1.4-0.9-2.9-0.7-4.4c0.2-1.9,0.5-3.7,0.7-5.6c0.3-2.8,0.7-5.5,1-8.3c0.2-2.5,0.4-5.1,0.6-7.7
			c0.1-1.3,0.2-2.7-0.5-3.9c-0.5-0.9-1.1-1.7-1.8-2.5c-0.6-0.7-1.2-1.4-1.7-2.1c-1-1.4-1.5-3-1.5-4.8c0-2.6,0.3-5.2,1.4-7.6
			c0.6-1.2,1.4-2.3,2.6-3c2.4-1.4,5.4-0.7,7.1,1.6c1.1,1.5,1.6,3.3,1.9,5.1C62,29.3,62,30.5,62.2,31.6z"/>
		<path class="st1" d="M33.6,26.9c0,1.5,0,3,0,4.5c0,0.4,0.1,0.8,0.2,1.1c0.2,0.4,0.5,0.7,1,0.6c0.5,0,0.8-0.3,0.9-0.7
			c0.1-0.5,0.2-1,0.3-1.5c0.1-2.7,0.1-5.3,0.2-8c0-0.6,0.1-1.2,0.3-1.8c0.1-0.3,0.2-0.6,0.6-0.6c0.4,0,0.5,0.3,0.6,0.6
			c0.1,0.8,0.3,1.7,0.3,2.5c0.1,2.5,0.1,4.9,0.2,7.4c0,0.5,0.1,1,0.3,1.4c0.1,0.4,0.4,0.7,0.9,0.7c0.5,0,0.8-0.2,0.9-0.6
			c0.1-0.4,0.2-0.8,0.2-1.2c0-2.9,0-5.8,0-8.8c0-0.5,0.1-1,0.2-1.5c0-0.2,0.3-0.4,0.4-0.4c0.2,0,0.4,0.1,0.5,0.3
			c0.1,0.2,0.2,0.5,0.3,0.7c0.2,1.8,0.4,3.6,0.6,5.4c0.2,2,0.3,4,0.4,6c0,0.7,0,1.4-0.1,2.1c-0.1,1.4-0.8,2.6-1.9,3.5
			c-1.3,1-2.2,2.3-2.5,3.9c-0.1,0.9-0.2,1.8-0.1,2.7c0.1,4.7,0.5,9.3,0.9,13.9c0.2,2.4,0.6,4.8,0.8,7.2c0.2,1.7,0.1,3.5-0.6,5.1
			c-0.2,0.5-0.6,1-1.1,1.3c-1.1,0.8-2.6,0.4-3.3-0.9c-0.7-1.2-0.9-2.6-0.9-4c0-1.4,0.2-2.8,0.4-4.2c0.4-4.4,0.8-8.7,1.2-13.1
			c0.2-2.3,0.2-4.6,0.2-7c0-1.8-0.7-3.3-2.1-4.5c-0.1-0.1-0.3-0.3-0.4-0.4c-1.4-1.1-2.1-2.7-2.1-4.4c0-2,0.1-3.9,0.3-5.9
			c0.2-2.1,0.4-4.2,0.6-6.3c0-0.4,0.2-0.9,0.3-1.2c0.1-0.2,0.3-0.3,0.5-0.3c0.1,0,0.3,0.2,0.4,0.4c0.1,0.3,0.2,0.6,0.2,0.9
			C33.6,23.6,33.6,25.3,33.6,26.9C33.6,26.9,33.6,26.9,33.6,26.9z"/>
	</g>
</g>
</svg>
