<?xml version="1.0" encoding="utf-8"?>
<!-- Generator: Adobe Illustrator 28.1.0, SVG Export Plug-In . SVG Version: 6.00 Build 0)  -->
<svg version="1.1" id="レイヤー_1" xmlns="http://www.w3.org/2000/svg" xmlns:xlink="http://www.w3.org/1999/xlink" x="0px"
	 y="0px" viewBox="0 0 93 93" style="enable-background:new 0 0 93 93;" xml:space="preserve">
<style type="text/css">
	.st0{fill:#172F41;}
	.st1{fill:#FFFFFF;}
</style>
<path class="st0" d="M84.9,92.8H7.1c-4.1,0-7.4-3.3-7.4-7.4V7.7c0-4.1,3.3-7.4,7.4-7.4h77.7c4.1,0,7.4,3.3,7.4,7.4v77.7
	C92.3,89.5,89,92.8,84.9,92.8z"/>
<g>
	<path class="st1" d="M60.6,66.8h-28c-1.5,0-2.8-1.2-2.8-2.8V45.2h33.5V64C63.3,65.5,62.1,66.8,60.6,66.8z"/>
	<rect x="28.5" y="39.8" class="st1" width="36" height="4.6"/>
	<rect x="27.4" y="31.3" transform="matrix(-0.9597 0.281 -0.281 -0.9597 98.3484 53.0675)" class="st1" width="36" height="4.6"/>
	<g>
		<rect x="32.6" y="49.9" class="st0" width="28.3" height="0.5"/>
		<rect x="32.6" y="54.3" class="st0" width="28.3" height="0.5"/>
		<rect x="32.6" y="59" class="st0" width="28.3" height="0.5"/>
		
			<rect x="38.8" y="61.5" transform="matrix(-1.836970e-16 1 -1 -1.836970e-16 102.9703 20.5398)" class="st0" width="4.9" height="0.5"/>
		
			<rect x="49.7" y="61.5" transform="matrix(-1.836970e-16 1 -1 -1.836970e-16 113.9425 9.5675)" class="st0" width="4.9" height="0.5"/>
	</g>
</g>
</svg>
