<?xml version="1.0" encoding="utf-8"?>
<!-- Generator: Adobe Illustrator 28.1.0, SVG Export Plug-In . SVG Version: 6.00 Build 0)  -->
<svg version="1.1" id="レイヤー_1" xmlns="http://www.w3.org/2000/svg" xmlns:xlink="http://www.w3.org/1999/xlink" x="0px"
	 y="0px" viewBox="0 0 595.3 82.8" style="enable-background:new 0 0 595.3 82.8;" xml:space="preserve">
<style type="text/css">
	.st0{fill:#FFFFFF;}
</style>
<g>
	<path class="st0" d="M3.7,50c-0.7,5.7,5,11.4,10.6,12.5c6.3,1.3,11.2-1.3,16.1-4.9c0.2,0.3,0.4,0.7,0.6,1.1c-1.7,1.2-3.2,2.6-5,3.5
		c-9.5,5-20.9,0.6-23.6-9c-1.7-6-0.1-11.2,4.6-15.4c4.6-4.1,10-4.9,15.7-2.8c5.8,2.2,8.8,6.6,9.7,12.6c0.3,1.9-0.6,2.2-2.4,2.2
		c-7.8,0-15.5,0-23.3,0C5.7,50,4.8,50,3.7,50z M3.7,48.4c9.1,0,18.1,0,27.2,0c-0.9-8-7-13.3-14.8-12.7C9,36,3.4,41.8,3.7,48.4z"/>
	<path class="st0" d="M73,73.9c0-8,0-16.2,0-24.2c0-8.4,6.2-15.2,14-15.6c8.9-0.4,15.9,5.5,16.7,14c0.5,6-3.4,12.3-9.4,14.9
		c-5.9,2.6-13.1,1-17.4-3.7c-0.6-0.7-1.3-1.5-2.2-2.7c0,6.1,0,11.7,0,17.2C74.2,73.9,73.6,73.9,73,73.9z M74.7,49.1
		c0,7.7,6.1,13.8,13.7,13.8c7.5-0.1,13.8-6.2,13.8-13.5c0-7.8-6.1-13.8-14-13.8C80.6,35.6,74.7,41.5,74.7,49.1z"/>
	<path class="st0" d="M135.4,49.1c0-8.5,6.7-15.1,15.4-15.1c8.6,0,15.3,6.9,15.2,15.2c-0.1,8.5-7,15-15.5,15
		C142.1,64.2,135.4,57.5,135.4,49.1z M164.7,49.2c0.1-7.5-6.2-13.7-13.9-13.7s-13.9,6.1-13.9,13.6c0,7.4,6.2,13.6,13.7,13.7
		C158,63,164.6,56.7,164.7,49.2z"/>
	<g>
		<path class="st0" d="M235.3,35.4c-5.5,2.7-10.9,5.5-16.3,8.2c-1.4,0.6-2.5,0.7-4,0c-4.8-2.5-9.6-4.8-14.6-7.2
			c-0.7-0.4-1.5-0.6-2.1-0.9c0,9.4,0,18.6,0,27.8c0.3,0,0.7,0,1.2,0V37.7c5.5,2.6,10.3,4.8,15.1,7.3c1.8,0.9,3.2,0.9,5-0.1
			c4.5-2.5,9-4.7,14.1-7.3v25.8h1.5C235.3,54,235.3,44.6,235.3,35.4z"/>
	</g>
	<path class="st0" d="M306.7,65.1h-8.2V16.1h12.9l14.8,30.7l14.8-30.7h12.9v48.9h-8.2V26.8l-17.1,34h-4.6l-17-34V65.1z"/>
	<path class="st0" d="M422.3,58.3c-4.9,4.8-11,7.3-18.3,7.3s-13.4-2.5-18.3-7.3c-4.9-4.8-7.4-10.8-7.4-18.1c0-7.2,2.5-13.3,7.4-18.1
		c4.9-4.8,11-7.3,18.3-7.3s13.4,2.5,18.3,7.3c4.9,4.8,7.4,10.8,7.4,18.1C429.7,47.4,427.2,53.5,422.3,58.3z M416.2,27.7
		c-3.3-3.4-7.4-5.1-12.3-5.1c-4.8,0-9,1.7-12.3,5.1s-5,7.6-5,12.5s1.7,9.1,5,12.5s7.4,5.1,12.3,5.1c4.8,0,9-1.7,12.3-5.1
		s5-7.6,5-12.5C421.2,35.3,419.6,31.1,416.2,27.7z"/>
	<path class="st0" d="M475.6,65.1h-9.2l-19.7-48.9h9.2L471,52.7l15.1-36.5h9.2L475.6,65.1z"/>
	<path class="st0" d="M516.3,16.1h8.2v48.9h-8.2L516.3,16.1L516.3,16.1z"/>
	<path class="st0" d="M586.6,16.1v7.8h-26.1v13h23.5v7.4h-23.5v13.1h27v7.8h-35.2V16.1H586.6z"/>
</g>
</svg>
